<?xml version="1.0" encoding="utf-8"?>
<!-- Generator: Adobe Illustrator 15.1.0, SVG Export Plug-In . SVG Version: 6.00 Build 0)  -->
<!DOCTYPE svg PUBLIC "-//W3C//DTD SVG 1.1//EN" "http://www.w3.org/Graphics/SVG/1.1/DTD/svg11.dtd">
<svg version="1.1" xmlns="http://www.w3.org/2000/svg" xmlns:xlink="http://www.w3.org/1999/xlink" x="0px" y="0px"
	 width="1101.498px" height="766.477px" viewBox="0 0 1101.498 766.477" enable-background="new 0 0 1101.498 766.477"
	 xml:space="preserve">
<g id="Layer_1">
	<path fill="#56C5D0" d="M1042.759,766.477H108.57l9.188-9.936h922.992L550.25,10.475L54.689,764.238l-8.302-5.457L542.143,4.72
		c1.973-3,4.927-4.72,8.106-4.72s6.134,1.72,8.106,4.72l491.799,748.044c2.072,3.152,2.399,6.556,0.899,9.337
		C1049.554,764.881,1046.531,766.477,1042.759,766.477z"/>
</g>
<g id="Layer_5">
	<g>
		<path fill="#8F9DA5" stroke="#8F9DA5" stroke-width="2" stroke-miterlimit="10" d="M151.751,734.802l6.761-13.416l17.235-35.37
			l2.005-4.446l4.313,0.039c1.338,0,2.788-0.013,4.35-0.039l6.424,19.108l11.882,34.124l-3.529-0.078
			c-0.669,0-1.994,0.026-3.975,0.078c-0.668-2.496-1.775-6.109-3.321-10.842c-1.546-4.731-2.851-8.566-3.914-11.504h-20.295
			l-5.38,11.66l-4.75,10.686l-3.81-0.078C155.125,734.724,153.793,734.75,151.751,734.802z M171.875,707.308h16.696l-6.9-20.63
			L171.875,707.308z"/>
		<path fill="#8F9DA5" stroke="#8F9DA5" stroke-width="2" stroke-miterlimit="10" d="M269.761,727.977
			c-0.347,1.884-0.656,3.926-0.929,6.123c-4.878,1.039-9.348,1.56-13.409,1.56c-3.616,0-7.107-0.578-10.475-1.735
			c-3.368-1.156-6.296-2.944-8.785-5.362c-2.488-2.418-4.302-5.265-5.441-8.54c-1.139-3.276-1.708-6.786-1.708-10.529
			c0-4.003,0.631-7.864,1.895-11.583c1.263-3.717,3.175-6.869,5.739-9.456c2.563-2.587,5.658-4.524,9.287-5.811
			c3.627-1.287,7.422-1.931,11.384-1.931c4.259,0,8.506,0.468,12.741,1.404c0.024,1.316,0.161,3.332,0.408,6.045
			c-2.749-0.885-5.089-1.476-7.021-1.776c-1.931-0.297-3.764-0.447-5.497-0.447c-2.947,0-5.771,0.474-8.469,1.423
			c-2.699,0.95-5.089,2.465-7.169,4.544c-2.08,2.08-3.672,4.634-4.773,7.662c-1.103,3.029-1.653,6.182-1.653,9.458
			c0,3.042,0.439,5.928,1.319,8.656c0.878,2.731,2.229,5.039,4.049,6.923c1.82,1.885,3.98,3.327,6.482,4.329
			c2.501,1.001,5.312,1.501,8.432,1.501C260.103,730.434,264.635,729.615,269.761,727.977z"/>
		<path fill="#8F9DA5" stroke="#8F9DA5" stroke-width="2" stroke-miterlimit="10" d="M336.622,727.977
			c-0.347,1.884-0.656,3.926-0.929,6.123c-4.878,1.039-9.348,1.56-13.409,1.56c-3.616,0-7.107-0.578-10.475-1.735
			c-3.368-1.156-6.295-2.944-8.785-5.362c-2.488-2.418-4.303-5.265-5.441-8.54c-1.14-3.276-1.709-6.786-1.709-10.529
			c0-4.003,0.631-7.864,1.895-11.583c1.263-3.717,3.176-6.869,5.739-9.456c2.563-2.587,5.658-4.524,9.286-5.811
			c3.627-1.287,7.422-1.931,11.385-1.931c4.259,0,8.506,0.468,12.741,1.404c0.024,1.316,0.161,3.332,0.408,6.045
			c-2.749-0.885-5.089-1.476-7.02-1.776c-1.932-0.297-3.765-0.447-5.498-0.447c-2.947,0-5.77,0.474-8.469,1.423
			c-2.699,0.95-5.089,2.465-7.169,4.544c-2.08,2.08-3.671,4.634-4.773,7.662c-1.103,3.029-1.653,6.182-1.653,9.458
			c0,3.042,0.439,5.928,1.318,8.656c0.878,2.731,2.229,5.039,4.049,6.923c1.819,1.885,3.98,3.327,6.481,4.329
			c2.501,1.001,5.312,1.501,8.432,1.501C326.964,730.434,331.496,729.615,336.622,727.977z"/>
		<path fill="#8F9DA5" stroke="#8F9DA5" stroke-width="2" stroke-miterlimit="10" d="M364.146,734.802l0.934-14.662l1.047-27.417
			l0.112-5.966c0.024-1.508,0.037-3.237,0.037-5.188c5.594,0.026,11.325,0.039,17.191,0.039l11.845-0.039h3.787
			c-0.174,1.808-0.285,3.627-0.334,5.46l-3.306-0.194c-0.817-0.052-2.223-0.092-4.216-0.118c-1.994-0.025-3.969-0.039-5.925-0.039
			c-5.845,0-9.918,0.039-12.221,0.117l-0.674,18.251c3.814,0.078,7.232,0.118,10.254,0.118c3.294,0,7.616-0.053,12.966-0.156
			c-0.174,1.82-0.285,3.613-0.334,5.381l-12.783-0.117c-2.501,0-5.982,0.053-10.441,0.157l-0.674,19.265l3.865,0.039
			c7.012,0,11.664-0.025,13.956-0.078c2.292-0.052,4.973-0.169,8.046-0.352c-0.173,1.925-0.285,3.757-0.334,5.499
			c-5.968-0.052-11.007-0.078-15.118-0.078L364.146,734.802z"/>
		<path fill="#8F9DA5" stroke="#8F9DA5" stroke-width="2" stroke-miterlimit="10" d="M424.135,733.398
			c-0.099-2.47-0.26-4.614-0.483-6.435c2.625,1.3,4.983,2.216,7.076,2.749c2.092,0.533,4.105,0.8,6.036,0.8
			c1.857,0,3.585-0.331,5.182-0.995c1.598-0.662,2.798-1.599,3.604-2.807c0.804-1.209,1.207-2.594,1.207-4.153
			c0-0.91-0.136-1.761-0.409-2.555c-0.272-0.793-0.712-1.6-1.318-2.419c-0.607-0.818-1.66-1.923-3.158-3.313
			c-1.499-1.391-3.622-3.309-6.37-5.753l-2.749-2.457c-1.04-0.936-1.981-1.864-2.823-2.787c-0.842-0.924-1.548-1.808-2.117-2.651
			c-0.57-0.846-1.009-1.612-1.319-2.303c-0.31-0.688-0.551-1.454-0.724-2.3c-0.173-0.846-0.26-1.71-0.26-2.593
			c0-2.237,0.582-4.329,1.746-6.279c1.164-1.95,2.916-3.51,5.256-4.681c2.34-1.169,5.429-1.754,9.268-1.754
			c2.749,0,6.129,0.391,10.141,1.17c0.049,1.675,0.223,3.729,0.52,6.161c-3.789-1.404-7.231-2.105-10.326-2.105
			c-2.13,0-3.913,0.369-5.349,1.105c-1.436,0.737-2.525,1.682-3.269,2.832c-0.743,1.151-1.114,2.335-1.114,3.551
			c0,0.727,0.099,1.436,0.297,2.125c0.198,0.688,0.495,1.345,0.892,1.97c0.569,0.909,1.275,1.826,2.117,2.748
			c0.842,0.923,2.006,2.049,3.492,3.374c0.372,0.312,1.789,1.533,4.253,3.665c2.464,2.133,4.259,3.783,5.387,4.954
			c1.126,1.169,2.024,2.255,2.692,3.256c0.669,1,1.189,2.08,1.56,3.236c0.372,1.157,0.558,2.411,0.558,3.763
			c0,2.081-0.427,3.998-1.282,5.752c-0.854,1.756-2.081,3.192-3.677,4.31c-1.598,1.118-3.375,1.911-5.331,2.38
			c-1.956,0.467-3.999,0.701-6.129,0.701c-1.708,0-3.473-0.137-5.293-0.409C430.097,734.977,427.502,734.361,424.135,733.398z"/>
		<path fill="#8F9DA5" stroke="#8F9DA5" stroke-width="2" stroke-miterlimit="10" d="M479.333,733.398
			c-0.099-2.47-0.26-4.614-0.483-6.435c2.625,1.3,4.983,2.216,7.076,2.749s4.105,0.8,6.037,0.8c1.857,0,3.584-0.331,5.181-0.995
			c1.598-0.662,2.798-1.599,3.604-2.807c0.804-1.209,1.207-2.594,1.207-4.153c0-0.91-0.136-1.761-0.408-2.555
			c-0.273-0.793-0.712-1.6-1.318-2.419c-0.608-0.818-1.66-1.923-3.158-3.313c-1.499-1.391-3.621-3.309-6.37-5.753l-2.749-2.457
			c-1.04-0.936-1.981-1.864-2.823-2.787c-0.842-0.924-1.548-1.808-2.117-2.651c-0.57-0.846-1.009-1.612-1.319-2.303
			c-0.31-0.688-0.551-1.454-0.724-2.3s-0.26-1.71-0.26-2.593c0-2.237,0.582-4.329,1.746-6.279s2.916-3.51,5.256-4.681
			c2.341-1.169,5.429-1.754,9.268-1.754c2.749,0,6.129,0.391,10.14,1.17c0.05,1.675,0.223,3.729,0.521,6.161
			c-3.789-1.404-7.231-2.105-10.327-2.105c-2.13,0-3.913,0.369-5.349,1.105c-1.437,0.737-2.526,1.682-3.269,2.832
			c-0.743,1.151-1.114,2.335-1.114,3.551c0,0.727,0.099,1.436,0.297,2.125c0.198,0.688,0.495,1.345,0.891,1.97
			c0.57,0.909,1.275,1.826,2.118,2.748c0.841,0.923,2.006,2.049,3.492,3.374c0.371,0.312,1.789,1.533,4.252,3.665
			c2.464,2.133,4.259,3.783,5.387,4.954c1.126,1.169,2.024,2.255,2.693,3.256c0.668,1,1.188,2.08,1.56,3.236
			c0.372,1.157,0.557,2.411,0.557,3.763c0,2.081-0.427,3.998-1.282,5.752c-0.854,1.756-2.08,3.192-3.677,4.31
			c-1.598,1.118-3.375,1.911-5.331,2.38c-1.957,0.467-4,0.701-6.129,0.701c-1.709,0-3.473-0.137-5.293-0.409
			C485.294,734.977,482.7,734.361,479.333,733.398z"/>
		<path fill="#8F9DA5" stroke="#8F9DA5" stroke-width="2" stroke-miterlimit="10" d="M563.652,680.712
			c3.665,0,7.144,0.559,10.438,1.677c3.293,1.118,6.196,2.964,8.71,5.537c2.514,2.574,4.303,5.46,5.368,8.658
			c1.064,3.198,1.597,6.668,1.597,10.412c0,4.004-0.595,7.852-1.783,11.544c-1.188,3.691-3.021,6.824-5.497,9.397
			c-2.477,2.574-5.522,4.505-9.137,5.791c-3.617,1.287-7.418,1.931-11.404,1.931c-3.789,0-7.423-0.585-10.902-1.754
			c-3.48-1.171-6.445-2.971-8.896-5.402c-2.452-2.431-4.222-5.29-5.312-8.579c-1.09-3.288-1.634-6.779-1.634-10.47
			c0-4.057,0.656-7.949,1.969-11.681c1.312-3.73,3.25-6.884,5.813-9.458c2.563-2.572,5.658-4.484,9.287-5.732
			C555.894,681.335,559.689,680.712,563.652,680.712z M563.243,685.938c-2.971,0-5.782,0.5-8.432,1.5
			c-2.65,1.002-4.958,2.604-6.928,4.813c-1.968,2.208-3.43,4.806-4.383,7.792c-0.953,2.987-1.43,6.105-1.43,9.352
			c0,3.014,0.47,5.902,1.412,8.669c0.941,2.767,2.327,5.072,4.16,6.917c1.833,1.844,4.036,3.214,6.612,4.109
			c2.575,0.897,5.262,1.345,8.061,1.345c2.872,0,5.615-0.48,8.227-1.441s4.867-2.486,6.761-4.578c1.895-2.092,3.3-4.617,4.217-7.578
			c0.915-2.963,1.374-6.065,1.374-9.313c0-3.065-0.415-5.994-1.244-8.786c-0.831-2.792-2.154-5.176-3.976-7.15
			c-1.819-1.975-3.98-3.409-6.481-4.305C568.69,686.385,566.042,685.938,563.243,685.938z"/>
		<path fill="#8F9DA5" stroke="#8F9DA5" stroke-width="2" stroke-miterlimit="10" d="M616.805,734.802l0.741-10.491l0.853-19.382
			l0.37-16.301c0.049-3.302,0.074-5.654,0.074-7.059c2.972,0.053,5.436,0.078,7.394,0.078c1.684,0,3.547-0.025,5.591-0.078
			c2.043-0.052,3.721-0.077,5.033-0.077c2.303,0,4.403,0.169,6.298,0.506c1.894,0.339,3.591,1.112,5.09,2.321
			c1.498,1.208,2.601,2.612,3.306,4.212c0.706,1.599,1.06,3.411,1.06,5.439c0,1.95-0.279,3.759-0.836,5.421
			c-0.558,1.663-1.373,3.172-2.45,4.523c-1.078,1.352-2.358,2.458-3.844,3.315c-1.139,0.65-2.563,1.183-4.27,1.599
			c-1.14,0.261-2.699,0.507-4.679,0.74l6.535,10.958l6.758,10.881c0.471,0.756,1.15,1.886,2.042,3.394
			c-1.923-0.052-3.203-0.078-3.845-0.078c-0.69,0-2.009,0.026-3.955,0.078l-2.681-5.343c-0.547-1.04-1.093-2.067-1.639-3.081
			s-1.142-2.105-1.786-3.275l-8.415-14.391c-0.347-0.571-0.919-1.572-1.712-3.003c1.906,0.365,3.59,0.547,5.052,0.547
			c2.476,0,4.724-0.43,6.741-1.287c2.018-0.859,3.578-2.19,4.681-3.998c1.102-1.807,1.652-3.814,1.652-6.025
			c0-1.195-0.174-2.307-0.52-3.333c-0.347-1.027-0.898-1.893-1.653-2.594c-0.755-0.703-1.498-1.209-2.229-1.521
			c-0.73-0.312-1.671-0.546-2.823-0.702c-1.151-0.156-2.371-0.233-3.659-0.233l-5.273,0.077c-2.279,0-3.728-0.012-4.347-0.038
			c-0.765,17.471-1.233,33.539-1.405,48.201l-3.644-0.078C619.867,734.724,618.665,734.75,616.805,734.802z"/>
		<path fill="#8F9DA5" stroke="#8F9DA5" stroke-width="2" stroke-miterlimit="10" d="M678.95,734.802l0.556-8.97l0.778-18.681
			l0.519-18.406c0.024-1.066,0.036-2.132,0.036-3.198l-0.036-3.978l3.829,0.039l3.605-0.039c-0.445,6.5-0.778,13.286-1.001,20.357
			c-0.395,11.335-0.679,22.294-0.852,32.875l-3.493-0.078C682.444,734.724,681.13,734.75,678.95,734.802z"/>
		<path fill="#8F9DA5" stroke="#8F9DA5" stroke-width="2" stroke-miterlimit="10" d="M716.875,734.802l0.935-14.662l1.045-27.417
			l0.113-5.966c0.024-1.508,0.038-3.237,0.038-5.188c5.593,0.026,11.323,0.039,17.19,0.039l11.845-0.039h3.786
			c-0.173,1.808-0.284,3.627-0.334,5.46l-3.305-0.194c-0.818-0.052-2.224-0.092-4.217-0.118c-1.994-0.025-3.969-0.039-5.925-0.039
			c-5.844,0-9.917,0.039-12.221,0.117l-0.674,18.251c3.814,0.078,7.232,0.118,10.254,0.118c3.296,0,7.617-0.053,12.967-0.156
			c-0.174,1.82-0.284,3.613-0.333,5.381l-12.783-0.117c-2.502,0-5.982,0.053-10.441,0.157l-0.674,19.265l3.865,0.039
			c7.012,0,11.663-0.025,13.955-0.078c2.292-0.052,4.974-0.169,8.046-0.352c-0.174,1.925-0.285,3.757-0.334,5.499
			c-5.969-0.052-11.008-0.078-15.118-0.078L716.875,734.802z"/>
		<path fill="#8F9DA5" stroke="#8F9DA5" stroke-width="2" stroke-miterlimit="10" d="M776.864,733.398
			c-0.099-2.47-0.26-4.614-0.482-6.435c2.624,1.3,4.982,2.216,7.076,2.749c2.093,0.533,4.104,0.8,6.035,0.8
			c1.858,0,3.585-0.331,5.183-0.995c1.597-0.662,2.798-1.599,3.603-2.807c0.805-1.209,1.207-2.594,1.207-4.153
			c0-0.91-0.136-1.761-0.407-2.555c-0.274-0.793-0.713-1.6-1.319-2.419c-0.607-0.818-1.659-1.923-3.157-3.313
			c-1.499-1.391-3.622-3.309-6.37-5.753l-2.75-2.457c-1.04-0.936-1.981-1.864-2.822-2.787c-0.842-0.924-1.549-1.808-2.117-2.651
			c-0.57-0.846-1.009-1.612-1.318-2.303c-0.311-0.688-0.552-1.454-0.726-2.3c-0.173-0.846-0.259-1.71-0.259-2.593
			c0-2.237,0.581-4.329,1.745-6.279s2.916-3.51,5.257-4.681c2.34-1.169,5.429-1.754,9.268-1.754c2.748,0,6.128,0.391,10.14,1.17
			c0.05,1.675,0.224,3.729,0.521,6.161c-3.79-1.404-7.231-2.105-10.327-2.105c-2.131,0-3.913,0.369-5.35,1.105
			c-1.436,0.737-2.525,1.682-3.269,2.832c-0.743,1.151-1.113,2.335-1.113,3.551c0,0.727,0.098,1.436,0.297,2.125
			c0.197,0.688,0.495,1.345,0.892,1.97c0.569,0.909,1.274,1.826,2.117,2.748c0.842,0.923,2.006,2.049,3.491,3.374
			c0.371,0.312,1.789,1.533,4.253,3.665c2.464,2.133,4.26,3.783,5.386,4.954c1.127,1.169,2.025,2.255,2.693,3.256
			c0.669,1,1.188,2.08,1.561,3.236c0.371,1.157,0.558,2.411,0.558,3.763c0,2.081-0.428,3.998-1.282,5.752
			c-0.854,1.756-2.08,3.192-3.678,4.31c-1.597,1.118-3.374,1.911-5.33,2.38c-1.957,0.467-3.999,0.701-6.129,0.701
			c-1.708,0-3.474-0.137-5.293-0.409C782.826,734.977,780.231,734.361,776.864,733.398z"/>
	</g>
</g>
<g id="Layer_2_copy">
	<g>
		<path fill="#FFD200" d="M852.636,731.356l-6.588-6.131l60.659-65.176h-735.32l8.375-9h730.367c5.235,0,7.076,2.93,7.625,4.189
			c0.549,1.261,1.439,4.604-2.128,8.438L852.636,731.356z"/>
	</g>
	<g>
		<g>
			
				<rect x="948.99" y="699.78" transform="matrix(0.7298 0.6836 -0.6836 0.7298 747.8746 -458.0671)" fill="#FFD200" width="9" height="34.815"/>
		</g>
	</g>
	<g>
		<g>
			
				<rect x="913.803" y="670.421" transform="matrix(0.7298 0.6836 -0.6836 0.7298 729.684 -437.4443)" fill="#FFD200" width="9" height="68.127"/>
		</g>
	</g>
</g>
<g id="Layer_4_copy_4">
	<g>
		<g>
			<path fill="#FFFFFF" d="M49.573,630.333l6.489-7.006H41.567l25.007-26.994h115.046l-72.776-197.235L28.913,628.455l-25.492-8.884
				l1.311-3.759l-9.316-3.248l93.761-269.032c2.102-6.029,7.586-9.925,13.972-9.925c5.597,0,10.552,3.043,13.084,7.894
				c4.049,1.464,7.267,4.643,8.795,8.783l95.98,260.127c1.674,4.539,1.023,9.617-1.744,13.586
				c-2.765,3.968-7.304,6.337-12.141,6.337H49.573z"/>
		</g>
		<g>
			<path fill="#FFFFFF" d="M121.651,351.531c-1.347-3.648-4.365-6.234-8.022-7.045c-1.65-4.422-5.759-7.278-10.48-7.278
				c-4.833,0-8.982,2.947-10.572,7.509L1.317,606.573L0,610.35l3.778,1.317l5.539,1.93l-1.311,3.759l3.778,1.316l11.137,3.882
				l3.777,1.316l1.316-3.777l80.734-231.656l78.039,211.496H69.894h-1.747l-1.187,1.281l-10.927,11.795l-6.224,6.719h9.158h5.338
				l-0.266,0.287l-6.224,6.719h9.158h140.151c3.66,0,7.095-1.793,9.188-4.796c2.093-3.003,2.586-6.847,1.319-10.281L121.651,351.531
				z"/>
		</g>
		<g>
			<path fill="#FFFFFF" d="M946.505,630.333c-5.501,0-10.548-3.114-13.084-7.914c-5.729-2.11-9.722-7.681-9.722-13.891V345.868
				c0-8.161,6.639-14.801,14.8-14.801h150.128v7.005h8.006v26.994H958.7v231.268h138.392v7.006h8.006v26.994H946.505z"/>
		</g>
		<g>
			<path fill="#FFFFFF" d="M1097.498,606.939h-4.006v-3.006v-4h-4H955.1V361.466h133.934h4v-4v-11.794v-4h-4h-4.006v-3.005v-4h-4
				H938.5c-6.176,0-11.2,5.025-11.2,11.201v262.661c0,5.324,3.737,9.783,8.724,10.914c1.591,4.251,5.684,7.291,10.482,7.291h150.992
				h4v-4v-11.795v-4H1097.498z"/>
		</g>
		<g>
			<path fill="#FFFFFF" d="M579.838,630.333c-20.098,0-37.333-4.02-51.229-11.946c-5.849-3.336-11.21-7.448-15.938-12.224
				c-10.315-7.77-18.448-18.165-24.177-30.905c-11.45-25.47-12.398-55.999-12.398-87.661c0-54.841,2.444-91.513,14.937-116.676
				c13.685-27.563,38.604-39.854,80.799-39.854c34.684,0,60.562,8.515,76.923,25.308c4.446,3.313,8.425,7.106,11.827,11.277
				c12.931,15.851,13.079,32.447,13.079,33.146v7.6h-13.47l-13.417,0.093l-0.101-7.06l-7.904,0.055l-0.107-7.543
				c-0.005-0.348-0.212-8.546-7.527-16.987c-11.712-7.889-28.967-11.889-51.297-11.889c-31.119,0-47.41,7-56.23,24.159
				c-10.417,20.268-12.51,55.347-12.51,105.376c0,27.193,0.845,57.944,10.933,78.718c2.337,4.812,5.171,9.07,8.428,12.664
				c10.133,6.965,23.672,10.351,41.374,10.351c52.861,0,66.829-26.065,66.829-39.848V508.72h-97.997l6.5-7.006h-14.506
				l25.044-26.994h93.153c5.5,0,10.548,3.115,13.085,7.915c5.73,2.11,9.722,7.681,9.722,13.891v66.967
				C673.662,586.612,654.053,630.333,579.838,630.333z"/>
		</g>
		<g>
			<path fill="#FFFFFF" d="M646.375,359.091c-15.647-16.209-40.687-24.424-74.543-24.424c-40.651,0-64.576,11.675-77.574,37.855
				c-12.178,24.529-14.561,60.768-14.561,115.075c0,31.257,0.924,61.366,12.081,86.185c5.529,12.296,13.336,22.24,23.269,29.663
				c4.536,4.616,9.653,8.568,15.346,11.815c13.345,7.613,29.98,11.474,49.445,11.474c71.366,0,90.224-41.367,90.224-63.241v-66.967
				c0-5.324-3.737-9.783-8.724-10.915c-1.592-4.251-5.684-7.291-10.483-7.291H561.02h-1.746l-1.187,1.28l-10.942,11.795l-6.235,6.72
				h9.167h5.338l-0.265,0.285l-6.235,6.721h9.167h84.179v51.366c0,15.027-14.72,43.447-70.429,43.447
				c-18.534,0-32.916-3.637-43.758-11.223c-3.632-3.94-6.716-8.535-9.282-13.819c-10.422-21.46-11.295-52.697-11.295-80.29
				c0-50.566,2.159-86.108,12.908-107.021c9.534-18.548,26.752-26.113,59.432-26.113c26.814,0,43.416,5.701,53.7,12.77
				c8.383,9.438,8.712,18.867,8.724,19.654l0.057,3.97l3.971-0.027l3.624-0.025c0.314,1.716,0.35,2.838,0.354,3.088l0.057,3.971
				l3.971-0.027l5.897-0.041h5.87h4v-4c0-0.647-0.14-16.003-12.27-30.871C654.494,365.883,650.683,362.272,646.375,359.091z"/>
		</g>
		<g>
			<path fill="#FFFFFF" d="M294.945,630.333l6.549-7.006h-14.556l25.239-26.994h82.64L281.421,406.796v217.64h-26.995v-7.005h-8.006
				V349.278c0-4.238,1.685-8.108,4.745-10.899c2.725-2.486,6.42-3.913,10.138-3.913c5.199,0,9.917,2.697,12.619,7.214l0.412,0.688
				c3.159,1.15,5.818,3.351,7.594,6.316l126.637,211.673V336.964h26.995v7.005h8.006v271.564c0,8.161-6.64,14.8-14.8,14.8H294.945z"
				/>
		</g>
		<g>
			<path fill="#FFFFFF" d="M431.959,347.57v-3.005v-4h-4h-11.795h-4v4v228.823L278.838,350.534
				c-1.574-2.629-4.045-4.433-6.885-5.131l-1.121-1.874c-2.046-3.42-5.608-5.462-9.529-5.462c-2.831,0-5.642,1.083-7.712,2.972
				c-2.302,2.1-3.571,5.027-3.571,8.24v260.553v4h4h4.006v3.005v4h4h11.795h4v-4V393.767l123.344,206.166h-85.689h-1.736
				l-1.185,1.269l-11.029,11.795l-6.294,6.731h9.216h5.34l-0.256,0.273l-6.294,6.732h9.216h116.311c6.176,0,11.2-5.024,11.2-11.2
				V351.57v-4h-4H431.959z"/>
		</g>
		<g>
			<path fill="#FFFFFF" d="M433.765,311.959c-17.265,0-29.961-3.71-38.804-11.34c-4.792-3.147-8.761-7.268-11.799-12.25
				c-7.151-11.728-10.068-28.478-10.068-57.813c0-22.25,0-43.266,6.471-59.709c7.602-19.317,23.678-29.112,47.784-29.112
				c17.854,0,31.995,4.295,42.033,12.766c3.134,2.088,5.915,4.495,8.27,7.156c7.92,8.95,8.985,18.154,9.081,19.174l0.523,5.567
				l-9.666,0.917l-9.6,0.99l-0.377-3.379l-3.627,0.373l-0.616-5.517c-0.024-0.205-0.641-5.041-5.695-9.73
				c-6.364-3.886-15.218-5.855-26.321-5.855c-15.99,0-24.803,4.806-29.469,16.07c-4.936,11.915-5.328,30.385-5.328,53.293
				c0,29.785,2.922,44.36,10.404,51.682c5.12,2.941,12.18,4.256,22.802,4.256c30.834,0,33.524-18.423,33.623-19.207l0.685-5.501
				l19.266,2.215l-0.283,2.51l4.285,0.491l-0.622,5.551C486.674,275.918,482.089,311.959,433.765,311.959z"/>
		</g>
		<g>
			<path fill="#FFFFFF" d="M483.359,273.173l-1.982-0.227l-2.327-0.268c0.056-0.317,0.08-0.504,0.082-0.527l0.223-1.981
				l-1.982-0.228l-8.204-0.944l-1.968-0.226l-0.245,1.965c-0.114,0.913-3.187,22.36-37.195,22.36
				c-10.839,0-18.958-1.355-24.988-4.965c-9.024-8.488-11.818-24.914-11.818-54.573c0-23.315,0.413-42.144,5.602-54.67
				c5.24-12.651,15.354-18.293,32.795-18.293c13.668,0,22.627,2.893,28.502,6.571c6.238,5.63,7.04,11.742,7.092,12.214l0.22,1.971
				l1.973-0.203l1.536-0.158c0.193,0.766,0.261,1.272,0.275,1.394l0.22,1.971l1.973-0.204l4.107-0.422l4.094-0.387l1.99-0.189
				l-0.187-1.989c-0.034-0.36-0.91-8.894-8.192-17.123c-1.934-2.186-4.465-4.499-7.74-6.659
				c-7.18-6.121-19.412-12.049-39.867-12.049c-22.795,0-37.329,8.776-44.434,26.83c-6.221,15.808-6.221,36.492-6.221,58.391
				c0,28.618,2.765,44.825,9.542,55.939c2.823,4.629,6.434,8.354,10.9,11.245c8.23,7.203,20.145,10.62,36.63,10.62
				c45.131,0,49.335-32.872,49.372-33.204L483.359,273.173z"/>
		</g>
		<g>
			<polygon fill="#FFFFFF" points="675.626,311.457 675.626,308.454 671.623,308.454 671.623,164.196 619.463,164.196 
				622.252,161.192 615.461,161.192 633.526,141.734 739.325,141.734 739.325,144.737 743.329,144.737 743.329,164.196 
				695.083,164.196 695.083,311.457 			"/>
		</g>
		<g>
			<polygon fill="#FFFFFF" points="739.729,160.596 739.729,158.596 739.729,150.337 739.729,148.337 737.729,148.337 
				735.725,148.337 735.725,147.334 735.725,145.334 733.725,145.334 635.969,145.334 635.097,145.334 634.504,145.973 
				626.835,154.231 623.715,157.592 628.301,157.592 630.508,157.592 627.719,160.596 632.305,160.596 675.222,160.596 
				675.222,302.854 675.222,304.854 677.222,304.854 679.226,304.854 679.226,305.857 679.226,307.857 681.226,307.857 
				689.484,307.857 691.484,307.857 691.484,305.857 691.484,160.596 737.729,160.596 			"/>
		</g>
		<g>
			<path fill="#FFFFFF" d="M268.09,311.115l2.738-3.004h-6.742l16.198-17.77h62.844l-38.937-105.525l-43.781,125.625l-16.78-5.847
				l0.499-1.434l-4.503-1.572l53.05-152.22c1.308-3.75,4.718-6.172,8.688-6.172c2.915,0,5.583,1.349,7.297,3.609
				c2.461,0.926,4.397,2.861,5.337,5.411l54.06,146.514c1.041,2.822,0.636,5.979-1.083,8.446c-1.72,2.467-4.542,3.939-7.548,3.939
				H268.09z"/>
		</g>
		<g>
			<path fill="#FFFFFF" d="M250.102,303.037l6.205,2.162l1.889,0.658l0.658-1.888l45.242-129.814l44.199,119.787h-65.539h-0.882
				l-0.596,0.653l-5.987,6.57l-3.051,3.347h4.528h2.214l-2.738,3.004h4.528h78.658c1.83,0,3.548-0.897,4.594-2.398
				c1.047-1.502,1.293-3.424,0.66-5.141l-54.06-146.515c-0.704-1.908-2.322-3.229-4.263-3.569c-0.942-1.895-2.834-3.096-4.994-3.096
				c-2.417,0-4.493,1.475-5.289,3.757l-51.209,146.934l-0.658,1.888l1.888,0.659l2.615,0.911l-0.499,1.434L250.102,303.037z"/>
		</g>
		<g>
			<path fill="#FFFFFF" d="M741.498,630.333c-5.501,0-10.548-3.115-13.084-7.914c-5.73-2.11-9.722-7.681-9.722-13.891V325.181
				l8.006,8.639v-0.635l26.994,29.134v234.014h138.709v7.006h8.006v26.994H741.498z"/>
		</g>
		<g>
			<path fill="#FFFFFF" d="M888.801,606.939v-3.006v-4h-4H750.092V365.298v-1.567l-1.066-1.151l-11.795-12.729l-6.934-7.483v0.634
				l-1.071-1.156l-6.935-7.483v10.202v263.964c0,5.324,3.736,9.783,8.724,10.914c1.591,4.251,5.683,7.291,10.482,7.291h151.31h4v-4
				v-11.795v-4h-4H888.801z"/>
		</g>
		<g>
			<polygon fill="#FFFFFF" points="968.788,484.722 968.788,479.722 963.788,479.722 963.788,453.136 1054.258,453.136 
				1058.949,458.136 1059.258,458.136 1084.201,484.722 			"/>
		</g>
		<g>
			<polygon fill="#FFFFFF" points="1075.887,481.123 1057.7,461.736 1057.39,461.736 1052.7,456.736 967.387,456.736 
				967.387,476.123 972.387,476.123 972.387,481.123 			"/>
		</g>
		<g>
			<polygon fill="#FFFFFF" points="781.085,231.203 781.085,228.424 778.256,228.424 778.256,210.445 831.662,210.445 
				834.316,213.225 834.491,213.225 851.655,231.203 			"/>
		</g>
		<g>
			<polygon fill="#FFFFFF" points="843.241,227.603 832.951,216.825 832.776,216.825 830.122,214.045 781.856,214.045 
				781.856,224.824 784.685,224.824 784.685,227.603 			"/>
		</g>
		<g>
			<path fill="#FFFFFF" d="M553.272,311.959c-12.515,0-24.723-4.39-34.396-12.363c-14.924-10.156-23.827-26.953-23.827-44.97
				V145.863h19.458v3.003h4.004v10.319l16.221-17.451h62.362c2.915,0,5.589,1.354,7.31,3.621c3.498,1.342,5.894,4.72,5.894,8.583
				v104.729c0,29.386-23.857,53.292-53.183,53.292H553.272z M530.557,283.99c5.597,3.604,12.062,5.507,18.711,5.507h3.843
				c18.596,0,33.726-15.178,33.726-33.833v-91.468h-66.188l2.792-3.003h-4.93v96.438
				C518.511,267.746,522.898,277.339,530.557,283.99z"/>
		</g>
		<g>
			<path fill="#FFFFFF" d="M521.038,296.713c8.762,7.271,19.998,11.646,32.234,11.646h3.843c27.341,0,49.583-22.292,49.583-49.692
				V153.938c0-2.747-1.988-5.033-4.601-5.506c-0.921-1.833-2.814-3.098-5.003-3.098h-59.921h-0.872l-0.593,0.638l-7.676,8.258
				l-3.125,3.362h4.59h2.206l-2.792,3.003h4.59h56.936v95.068c0,20.641-16.744,37.434-37.325,37.434h-3.843
				c-7.695,0-14.863-2.292-20.876-6.221c-8.242-7.062-13.481-17.549-13.481-29.247V154.467v-2h-2h-2.004v-1.003v-2h-2h-8.258h-2v2
				v103.163C498.649,272.131,507.542,287.592,521.038,296.713z"/>
		</g>
		<g>
			<path fill="#FFFFFF" d="M770.042,312.158c-3.476,0-6.686-1.834-8.47-4.709c-3.562-1.536-5.996-5.08-5.996-9.013V152.407
				c0-5.419,4.458-9.828,9.938-9.828h86.499v3.895h4.527v18.205h-78.037v125.379H856.8v3.895h4.528v18.206H770.042z"/>
		</g>
		<g>
			<path fill="#FFFFFF" d="M764.112,304.504c0.9,2.363,3.216,4.054,5.93,4.054h85.426h2.262v-2.224v-6.558v-2.224h-2.262h-2.267
				v-1.671v-2.224h-2.264h-76.034V161.078h75.775h2.262v-2.224v-6.558v-2.224h-2.262h-2.266v-1.67v-2.224h-2.264h-80.636
				c-3.495,0-6.338,2.793-6.338,6.228v146.029C759.175,301.396,761.29,303.876,764.112,304.504z"/>
		</g>
	</g>
</g>
<g id="Layer_3">
	<path fill="#7357A5" d="M121.651,351.531c-1.641-4.445-5.761-7.318-10.498-7.318c-4.832,0-8.981,2.947-10.571,7.509L9.323,613.579
		l-1.317,3.777l3.778,1.316l11.137,3.882l3.777,1.316l1.316-3.777l83.367-239.212l83.411,226.058H77.9h-1.747l-1.188,1.281
		l-10.926,11.795l-6.224,6.719h9.158h140.151c3.66,0,7.095-1.793,9.188-4.796c2.093-3.003,2.586-6.847,1.319-10.281L121.651,351.531
		z"/>
	<path fill="#7357A5" d="M1097.498,606.939H955.1V361.466h133.934h4v-4v-11.794v-4h-4H946.505c-6.176,0-11.2,5.025-11.2,11.201
		v262.661c0,6.176,5.024,11.2,11.2,11.2h150.992h4v-4v-11.795v-4H1097.498z"/>
	<path fill="#7357A5" d="M579.838,341.672c-40.651,0-64.576,11.675-77.574,37.854c-12.178,24.529-14.561,60.769-14.561,115.075
		c0,31.257,0.924,61.368,12.081,86.186c6.826,15.182,17.124,26.78,30.609,34.473c13.345,7.613,29.98,11.474,49.445,11.474
		c71.366,0,90.224-41.367,90.224-63.241v-66.967c0-6.176-5.024-11.2-11.201-11.2h-89.836h-1.747l-1.186,1.279L555.15,498.4
		l-6.235,6.721h9.167h92.185v58.372c0,15.026-14.72,43.446-70.429,43.446c-31.03,0-50.428-10.184-61.045-32.047
		c-10.422-21.46-11.295-52.697-11.295-80.29c0-50.566,2.159-86.108,12.908-107.021c9.534-18.548,26.752-26.113,59.432-26.113
		c69.069,0,70.406,37.819,70.429,39.429l0.057,3.971l3.971-0.027l5.897-0.041h5.87h4v-4c0-0.647-0.14-16.003-12.27-30.871
		C642.497,351.178,616.269,341.672,579.838,341.672"/>
	<path fill="#7357A5" d="M424.17,347.57h-4v4v235.199L278.838,350.534c-2.047-3.42-5.608-5.462-9.529-5.462
		c-2.831,0-5.642,1.083-7.712,2.972c-2.303,2.101-3.571,5.027-3.571,8.24v260.553v4h4h11.795h4v-4V387.39L409.17,606.939h-85.688
		h-1.736l-1.186,1.268l-11.028,11.795l-6.294,6.732h9.216h116.311c6.176,0,11.2-5.024,11.2-11.2V351.57v-4h-4H424.17z"/>
	<path fill="#7357A5" d="M473.173,272.002l-1.967-0.227l-0.246,1.966c-0.114,0.913-3.185,22.36-37.195,22.36
		c-32.8,0-40.81-12.274-40.81-62.542c0-23.315,0.413-42.144,5.602-54.67c5.24-12.651,15.354-18.293,32.795-18.293
		c36.744,0,39.499,20.899,39.598,21.789l0.22,1.971l1.973-0.204l4.107-0.422l4.094-0.387l1.99-0.189l-0.187-1.989
		c-0.034-0.36-0.91-8.894-8.192-17.123c-6.34-7.165-19.051-15.704-43.603-15.704c-22.795,0-37.329,8.776-44.434,26.829
		c-6.221,15.809-6.221,36.493-6.221,58.392c0,28.618,2.765,44.825,9.542,55.938c7.847,12.868,21.678,18.862,43.526,18.862
		c45.131,0,49.335-32.872,49.372-33.204l0.222-1.982l-1.982-0.227L473.173,272.002z"/>
	<path fill="#7357A5" d="M553.272,308.359h3.843c27.341,0,49.583-22.292,49.583-49.692V153.938c0-3.088-2.512-5.6-5.6-5.6h-59.921
		h-0.871l-0.594,0.638l-7.676,8.258l-3.125,3.362h4.59h60.939v98.071c0,20.641-16.743,37.434-37.325,37.434h-3.843
		c-21.152,0-38.361-17.258-38.361-38.471V154.467v-2h-2h-8.258h-2v2V257.63C502.653,285.602,525.361,308.359,553.272,308.359"/>
	<polygon fill="#7357A5" points="739.729,160.596 739.729,158.596 739.729,150.337 739.729,148.337 737.729,148.337 
		639.974,148.337 639.102,148.337 638.508,148.977 630.84,157.234 627.719,160.596 632.305,160.596 679.226,160.596 
		679.226,305.857 679.226,307.857 681.226,307.857 689.484,307.857 691.484,307.857 691.484,305.857 691.484,160.596 
		737.729,160.596 	"/>
	<path fill="#7357A5" d="M258.196,305.857l0.658-1.888l46.648-133.85l46.796,126.825h-65.539h-0.882l-0.596,0.653l-5.987,6.571
		l-3.051,3.347h4.528h78.658c1.83,0,3.548-0.897,4.594-2.398c1.047-1.502,1.293-3.424,0.66-5.141l-54.06-146.515
		c-0.821-2.225-2.882-3.662-5.252-3.662c-2.418,0-4.494,1.475-5.29,3.757L248.872,300.49l-0.658,1.889l1.888,0.658l6.205,2.162
		L258.196,305.857z"/>
	<path fill="#7357A5" d="M750.092,606.939V365.298v-1.567l-1.066-1.151l-11.795-12.729l-6.934-7.483v9.202v263.964
		c0,6.176,5.023,11.2,11.2,11.2h151.31h4v-4v-11.795v-4h-4H750.092z"/>
	<polygon fill="#7357A5" points="972.387,481.123 1075.887,481.123 1057.7,461.736 972.387,461.736 	"/>
	<path fill="#7357A5" d="M855.467,297.552h-80.564V161.078h75.775h2.262v-2.224v-6.558v-2.224h-2.262h-80.637
		c-3.493,0-6.336,2.793-6.336,6.228v146.029c0,3.433,2.843,6.228,6.336,6.228h85.426h2.262v-2.224v-6.558v-2.224H855.467z"/>
	<polygon fill="#7357A5" points="784.685,227.603 843.241,227.603 832.951,216.825 784.685,216.825 	"/>
</g>
<g id="Layer_4_copy_3">
	<g>
		<path fill="#F05A8C" d="M469.169,268.999l-1.968-0.226l-0.245,1.965c-0.114,0.913-3.187,22.36-37.195,22.36
			c-32.8,0-40.81-12.274-40.81-62.542c0-23.314,0.412-42.144,5.601-54.67c5.241-12.651,15.355-18.293,32.796-18.293
			c36.744,0,39.499,20.9,39.598,21.789l0.22,1.971l1.973-0.203l4.107-0.422l4.094-0.388l1.989-0.189l-0.186-1.989
			c-0.034-0.359-0.91-8.894-8.192-17.123c-6.34-7.164-19.051-15.704-43.603-15.704c-22.795,0-37.329,8.776-44.434,26.83
			c-6.221,15.808-6.221,36.492-6.221,58.391c0,28.618,2.765,44.825,9.542,55.939c7.847,12.868,21.678,18.861,43.526,18.861
			c45.13,0,49.334-32.872,49.371-33.204l0.223-1.981l-1.982-0.228L469.169,268.999z"/>
	</g>
	<path fill="#F05A8C" d="M549.268,305.355h3.843c27.34,0,49.583-22.292,49.583-49.692V150.934c0-3.088-2.512-5.6-5.6-5.6h-59.921
		h-0.872l-0.593,0.638l-7.676,8.258l-3.125,3.362h4.59h60.939v98.071c0,20.641-16.744,37.434-37.325,37.434h-3.843
		c-21.152,0-38.361-17.258-38.361-38.471V151.463v-2h-2h-8.258h-2v2v103.163C498.649,282.598,521.357,305.355,549.268,305.355"/>
	<g>
		<polygon fill="#F05A8C" points="735.725,157.592 735.725,155.592 735.725,147.334 735.725,145.334 733.725,145.334 
			635.969,145.334 635.097,145.334 634.504,145.973 626.835,154.231 623.715,157.592 628.301,157.592 675.222,157.592 
			675.222,302.854 675.222,304.854 677.222,304.854 685.48,304.854 687.48,304.854 687.48,302.854 687.48,157.592 733.725,157.592 
					"/>
	</g>
	<g>
		<path fill="#F05A8C" d="M254.192,302.854l0.658-1.889l46.648-133.85l46.796,126.826h-65.539h-0.882l-0.596,0.653l-5.987,6.57
			l-3.051,3.347h4.528h78.658c1.83,0,3.548-0.896,4.594-2.398c1.047-1.501,1.293-3.423,0.66-5.14l-54.06-146.515
			c-0.821-2.225-2.883-3.662-5.253-3.662c-2.417,0-4.493,1.475-5.289,3.757l-51.209,146.934l-0.658,1.888l1.888,0.659l6.205,2.162
			L254.192,302.854z"/>
	</g>
	<g>
		<path fill="#F05A8C" d="M113.645,344.525c-1.64-4.445-5.761-7.318-10.497-7.318c-4.833,0-8.982,2.947-10.572,7.509L1.317,606.573
			L0,610.35l3.778,1.317l11.137,3.881l3.777,1.316l1.316-3.776l83.367-239.212l83.411,226.057H69.894h-1.747l-1.187,1.281
			l-10.927,11.795l-6.224,6.719h9.158h140.151c3.661,0,7.095-1.793,9.188-4.796c2.094-3.003,2.586-6.846,1.319-10.281
			L113.645,344.525z"/>
	</g>
	<g>
		<path fill="#F05A8C" d="M1089.492,599.933H947.094V354.461h133.934h4v-4v-11.795v-4h-4H938.5c-6.176,0-11.2,5.025-11.2,11.201
			v262.661c0,6.176,5.024,11.199,11.2,11.199h150.992h4v-4v-11.795v-4H1089.492z"/>
	</g>
	<path fill="#F05A8C" d="M571.833,334.667c-40.651,0-64.576,11.675-77.574,37.855c-12.178,24.529-14.561,60.768-14.561,115.075
		c0,31.257,0.924,61.366,12.081,86.185c6.826,15.182,17.124,26.781,30.61,34.473c13.344,7.613,29.98,11.475,49.444,11.475
		c71.367,0,90.224-41.369,90.224-63.242v-66.966c0-6.176-5.024-11.201-11.201-11.201H561.02h-1.746l-1.187,1.28l-10.942,11.795
		l-6.235,6.72h9.167h92.185v58.372c0,15.027-14.72,43.447-70.429,43.447c-31.029,0-50.427-10.185-61.045-32.047
		c-10.422-21.461-11.295-52.697-11.295-80.29c0-50.568,2.159-86.109,12.908-107.023c9.534-18.547,26.752-26.112,59.432-26.112
		c69.07,0,70.406,37.819,70.43,39.429l0.057,3.97l3.971-0.027l5.896-0.041h5.87h4v-4c0-0.646-0.14-16.004-12.27-30.871
		C634.491,344.173,608.263,334.667,571.833,334.667"/>
	<g>
		<path fill="#F05A8C" d="M742.086,599.933v-242.64v-1.568l-1.065-1.151l-11.795-12.729l-6.935-7.483v10.202v263.964
			c0,6.176,5.023,11.199,11.2,11.199h151.31h4v-4v-11.795v-4h-4H742.086z"/>
	</g>
	<g>
		<path fill="#F05A8C" d="M416.165,340.564h-4v4v235.199L270.833,343.528c-2.046-3.42-5.608-5.462-9.529-5.462
			c-2.831,0-5.642,1.083-7.712,2.972c-2.302,2.1-3.571,5.027-3.571,8.24v260.553v4h4h11.795h4v-4V380.385l131.35,219.548h-85.689
			h-1.736l-1.185,1.269l-11.029,11.795l-6.294,6.731h9.216h116.311c6.176,0,11.2-5.023,11.2-11.2V344.564v-4h-4H416.165z"/>
	</g>
	<g>
		<polygon fill="#F05A8C" points="967.387,476.123 1070.887,476.123 1052.7,456.736 967.387,456.736 		"/>
	</g>
	<g>
		<g>
			<path fill="#F05A8C" d="M850.937,293.657h-80.563V157.184h75.774h2.264v-2.224v-6.557v-2.224h-2.264h-80.636
				c-3.495,0-6.338,2.793-6.338,6.228v146.029c0,3.434,2.843,6.227,6.338,6.227h85.424h2.264v-2.224v-6.558v-2.224H850.937z"/>
		</g>
		<g>
			<polygon fill="#F05A8C" points="781.856,224.824 840.412,224.824 830.122,214.045 781.856,214.045 			"/>
		</g>
	</g>
</g>
</svg>
